<svg width="2202.393" height="180.542" viewBox="0 0 2202.393 180.542" xmlns="http://www.w3.org/2000/svg"><g id="svgGroup" stroke-linecap="round" fill-rule="evenodd" font-size="9pt" stroke="#FFF" stroke-width="0.25mm" fill="blank" style="stroke:#FFF;stroke-width:0.25mm;fill:white"><path d="M 315.796 177.002 L 315.796 176.514 A 8.446 8.446 0 0 0 316.693 175.33 Q 317.846 173.534 319.031 170.288 A 58.389 58.389 0 0 0 321.053 163.417 A 68.516 68.516 0 0 0 321.655 160.522 Q 323.12 151.978 324.89 141.052 A 2478.89 2478.89 0 0 0 328.209 119.977 A 2702.778 2702.778 0 0 0 328.43 118.53 A 5335.576 5335.576 0 0 0 331.909 95.398 L 335.083 73.975 A 1381.886 1381.886 0 0 0 336.113 66.902 Q 336.514 64.098 336.866 61.533 A 786.8 786.8 0 0 0 337.524 56.641 A 1121.816 1121.816 0 0 0 337.975 53.169 Q 338.562 48.58 338.839 46.037 A 141.969 141.969 0 0 0 338.867 45.776 L 353.394 45.776 L 411.621 150.024 L 471.313 45.776 L 483.154 45.776 L 497.803 147.705 A 317.957 317.957 0 0 0 498.618 152.632 Q 499.038 155.046 499.449 157.143 A 154.266 154.266 0 0 0 499.939 159.546 Q 500.977 164.429 501.953 167.786 A 56.597 56.597 0 0 0 502.625 169.942 Q 502.945 170.899 503.265 171.718 A 24.5 24.5 0 0 0 503.906 173.218 Q 504.861 175.247 505.583 176.459 A 17.91 17.91 0 0 0 505.615 176.514 L 505.615 177.002 L 475.586 177.002 L 475.586 176.514 A 11.236 11.236 0 0 0 475.78 175.941 Q 476.089 174.957 476.501 173.218 Q 477.051 170.898 477.051 167.725 A 38.551 38.551 0 0 0 477.032 166.573 Q 476.992 165.267 476.872 163.474 A 160.026 160.026 0 0 0 476.746 161.743 A 94.505 94.505 0 0 0 475.83 154.053 L 465.332 79.224 L 409.79 176.758 L 401.123 175.537 L 346.558 78.491 A 2782.376 2782.376 0 0 0 343.689 98.236 A 2178.551 2178.551 0 0 0 341.187 116.455 L 339.233 131.348 A 833.391 833.391 0 0 0 338.318 138.565 A 682.303 682.303 0 0 0 337.524 145.325 A 1015.447 1015.447 0 0 0 336.93 150.747 Q 336.666 153.221 336.446 155.423 A 568.537 568.537 0 0 0 336.304 156.86 A 174.413 174.413 0 0 0 336.09 159.203 Q 335.819 162.437 335.815 164.263 A 24.827 24.827 0 0 0 335.815 164.307 A 131.272 131.272 0 0 0 335.833 166.484 Q 335.85 167.56 335.887 168.515 A 69.982 69.982 0 0 0 335.937 169.617 A 57.416 57.416 0 0 0 336.068 171.488 Q 336.166 172.623 336.304 173.584 A 110.973 110.973 0 0 0 336.487 174.98 Q 336.563 175.533 336.639 176.039 A 63.701 63.701 0 0 0 336.792 177.002 L 315.796 177.002 Z M 1047.485 177.002 L 1047.485 176.514 A 8.446 8.446 0 0 0 1048.383 175.33 Q 1049.536 173.534 1050.72 170.288 A 58.389 58.389 0 0 0 1052.742 163.417 A 68.516 68.516 0 0 0 1053.345 160.522 Q 1054.81 151.978 1056.58 141.052 A 2478.89 2478.89 0 0 0 1059.898 119.977 A 2702.778 2702.778 0 0 0 1060.12 118.53 A 5335.576 5335.576 0 0 0 1063.599 95.398 L 1066.772 73.975 A 1381.886 1381.886 0 0 0 1067.802 66.902 Q 1068.203 64.098 1068.556 61.533 A 786.8 786.8 0 0 0 1069.214 56.641 A 1121.816 1121.816 0 0 0 1069.664 53.169 Q 1070.251 48.58 1070.528 46.037 A 141.969 141.969 0 0 0 1070.557 45.776 L 1085.083 45.776 L 1143.311 150.024 L 1203.003 45.776 L 1214.844 45.776 L 1229.492 147.705 A 317.957 317.957 0 0 0 1230.308 152.632 Q 1230.728 155.046 1231.139 157.143 A 154.266 154.266 0 0 0 1231.628 159.546 Q 1232.666 164.429 1233.643 167.786 A 56.597 56.597 0 0 0 1234.314 169.942 Q 1234.634 170.899 1234.955 171.718 A 24.5 24.5 0 0 0 1235.596 173.218 Q 1236.551 175.247 1237.272 176.459 A 17.91 17.91 0 0 0 1237.305 176.514 L 1237.305 177.002 L 1207.275 177.002 L 1207.275 176.514 A 11.236 11.236 0 0 0 1207.47 175.941 Q 1207.779 174.957 1208.191 173.218 Q 1208.74 170.898 1208.74 167.725 A 38.551 38.551 0 0 0 1208.721 166.573 Q 1208.682 165.267 1208.561 163.474 A 160.026 160.026 0 0 0 1208.435 161.743 A 94.505 94.505 0 0 0 1207.52 154.053 L 1197.021 79.224 L 1141.479 176.758 L 1132.813 175.537 L 1078.247 78.491 A 2782.376 2782.376 0 0 0 1075.378 98.236 A 2178.551 2178.551 0 0 0 1072.876 116.455 L 1070.923 131.348 A 833.391 833.391 0 0 0 1070.007 138.565 A 682.303 682.303 0 0 0 1069.214 145.325 A 1015.447 1015.447 0 0 0 1068.62 150.747 Q 1068.356 153.221 1068.135 155.423 A 568.537 568.537 0 0 0 1067.993 156.86 A 174.413 174.413 0 0 0 1067.78 159.203 Q 1067.508 162.437 1067.505 164.263 A 24.827 24.827 0 0 0 1067.505 164.307 A 131.272 131.272 0 0 0 1067.522 166.484 Q 1067.54 167.56 1067.576 168.515 A 69.982 69.982 0 0 0 1067.627 169.617 A 57.416 57.416 0 0 0 1067.757 171.488 Q 1067.856 172.623 1067.993 173.584 A 110.973 110.973 0 0 0 1068.176 174.98 Q 1068.253 175.533 1068.329 176.039 A 63.701 63.701 0 0 0 1068.481 177.002 L 1047.485 177.002 Z M 1339.722 177.002 L 1339.722 176.514 Q 1340.225 174.751 1340.7 172.412 A 93.083 93.083 0 0 0 1341.125 170.166 A 75.678 75.678 0 0 0 1341.603 167.07 Q 1341.792 165.673 1341.962 164.097 A 159.587 159.587 0 0 0 1342.285 160.767 Q 1342.773 155.151 1343.018 147.4 Q 1343.185 142.071 1343.238 135.501 A 781.151 781.151 0 0 0 1343.262 129.272 L 1343.262 49.805 Q 1343.262 39.429 1343.018 31.677 A 333.236 333.236 0 0 0 1342.8 26.155 Q 1342.59 21.797 1342.285 18.25 A 156.229 156.229 0 0 0 1341.902 14.336 Q 1341.726 12.76 1341.532 11.373 A 71.876 71.876 0 0 0 1341.125 8.789 A 90.252 90.252 0 0 0 1340.613 6.123 Q 1340.349 4.856 1340.076 3.766 A 42.114 42.114 0 0 0 1339.722 2.441 L 1339.722 1.953 L 1369.019 1.953 L 1369.019 2.441 Q 1368.515 4.204 1368.04 6.543 A 93.083 93.083 0 0 0 1367.615 8.789 A 66.583 66.583 0 0 0 1367.15 11.858 Q 1366.967 13.269 1366.809 14.867 A 143.339 143.339 0 0 0 1366.516 18.25 Q 1366.089 23.926 1365.784 31.677 A 354.006 354.006 0 0 0 1365.598 37.86 Q 1365.538 40.59 1365.508 43.576 A 624.932 624.932 0 0 0 1365.479 49.805 L 1365.479 77.026 L 1436.768 18.799 A 68.335 68.335 0 0 0 1441.429 14.655 Q 1446.033 10.133 1447.734 6.263 A 10.721 10.721 0 0 0 1448.73 1.953 L 1483.032 1.953 L 1483.032 2.441 A 41.641 41.641 0 0 0 1474.529 5.513 A 54.656 54.656 0 0 0 1468.445 8.972 A 141.941 141.941 0 0 0 1460.831 14.328 A 193.166 193.166 0 0 0 1452.759 20.752 L 1389.771 73.486 L 1465.576 156.738 A 532.198 532.198 0 0 0 1468.949 160.169 Q 1470.273 161.501 1471.459 162.673 A 251.801 251.801 0 0 0 1473.694 164.856 A 153.072 153.072 0 0 0 1476.1 167.128 Q 1478.012 168.892 1479.614 170.227 A 65.563 65.563 0 0 0 1481.776 171.956 Q 1482.778 172.722 1483.705 173.358 A 36.84 36.84 0 0 0 1484.314 173.767 A 92.533 92.533 0 0 0 1488.77 176.514 L 1488.77 177.002 L 1453.003 177.002 Q 1452.515 175.903 1451.355 174.194 A 41.603 41.603 0 0 0 1449.806 172.066 A 51.546 51.546 0 0 0 1448.669 170.654 A 116.06 116.06 0 0 0 1446.35 167.959 A 134.811 134.811 0 0 0 1445.374 166.87 A 450.202 450.202 0 0 0 1443.649 164.978 A 374.734 374.734 0 0 0 1442.017 163.208 L 1365.479 79.224 L 1365.479 129.272 A 609.52 609.52 0 0 0 1365.521 136.685 Q 1365.557 139.62 1365.623 142.299 A 343.676 343.676 0 0 0 1365.784 147.4 Q 1365.993 152.729 1366.261 157.048 A 265.143 265.143 0 0 0 1366.516 160.767 Q 1366.835 164.954 1367.289 168.123 A 62.473 62.473 0 0 0 1367.615 170.166 A 90.252 90.252 0 0 0 1368.127 172.832 Q 1368.391 174.099 1368.665 175.189 A 42.114 42.114 0 0 0 1369.019 176.514 L 1369.019 177.002 L 1339.722 177.002 Z M 91.553 0 L 85.571 16.235 A 71.465 71.465 0 0 0 81.789 15.321 Q 79.842 14.902 77.656 14.527 A 124.428 124.428 0 0 0 76.172 14.282 A 147.856 147.856 0 0 0 72.41 13.741 Q 70.724 13.52 68.842 13.304 A 294.463 294.463 0 0 0 64.88 12.878 Q 58.228 12.207 49.561 12.207 A 116.096 116.096 0 0 0 47.2 12.233 Q 46.149 12.254 44.984 12.294 A 222.947 222.947 0 0 0 42.542 12.39 A 412.766 412.766 0 0 0 36.579 12.699 A 367.743 367.743 0 0 0 34.668 12.817 A 5962.401 5962.401 0 0 1 25.757 13.306 L 25.757 79.956 Q 38.324 79.834 48.452 79.224 A 2050.812 2050.812 0 0 0 48.462 79.224 A 942.951 942.951 0 0 0 55.632 78.766 Q 58.44 78.575 60.951 78.384 A 467.461 467.461 0 0 0 65.674 78.003 A 286.416 286.416 0 0 0 72.563 77.315 Q 75.705 76.961 78.498 76.564 A 162.972 162.972 0 0 0 80.322 76.294 L 76.538 93.994 A 910.549 910.549 0 0 0 59.326 91.919 A 395.839 395.839 0 0 0 51.422 91.11 A 502.942 502.942 0 0 0 42.847 90.393 A 235.441 235.441 0 0 0 29.892 89.764 A 206.061 206.061 0 0 0 25.757 89.722 L 25.757 166.26 A 300.65 300.65 0 0 0 39.581 165.955 A 232.804 232.804 0 0 0 52.246 165.039 A 381.276 381.276 0 0 0 60.881 164.072 Q 65.582 163.489 69.719 162.837 A 207.638 207.638 0 0 0 73.364 162.231 A 223.232 223.232 0 0 0 83.405 160.37 A 172.942 172.942 0 0 0 92.529 158.203 L 88.989 177.979 A 50.316 50.316 0 0 0 88.165 177.917 Q 87.221 177.855 85.888 177.792 A 235.115 235.115 0 0 0 84.595 177.734 A 726.421 726.421 0 0 0 81.497 177.612 A 988.823 988.823 0 0 0 78.064 177.49 A 381.153 381.153 0 0 0 74.371 177.383 A 440.42 440.42 0 0 0 70.496 177.307 Q 66.528 177.246 62.988 177.185 A 1575.351 1575.351 0 0 1 60.043 177.132 Q 58.696 177.106 57.49 177.08 A 909.445 909.445 0 0 1 56.702 177.063 A 447.816 447.816 0 0 0 55.424 177.036 Q 53.837 177.006 52.937 177.002 A 56.387 56.387 0 0 0 52.734 177.002 L 0 177.002 L 0 176.514 Q 0.504 174.751 0.978 172.412 A 93.083 93.083 0 0 0 1.404 170.166 A 75.678 75.678 0 0 0 1.882 167.07 Q 2.07 165.673 2.24 164.097 A 159.587 159.587 0 0 0 2.563 160.767 Q 3.052 155.151 3.296 147.4 Q 3.464 142.071 3.516 135.501 A 781.151 781.151 0 0 0 3.54 129.272 L 3.54 49.805 Q 3.54 39.429 3.296 31.677 A 333.236 333.236 0 0 0 3.078 26.155 Q 2.869 21.797 2.563 18.25 A 156.229 156.229 0 0 0 2.18 14.336 Q 2.004 12.76 1.81 11.373 A 71.876 71.876 0 0 0 1.404 8.789 A 90.252 90.252 0 0 0 0.892 6.123 Q 0.627 4.856 0.354 3.766 A 42.114 42.114 0 0 0 0 2.441 L 0 1.953 A 3746.514 3746.514 0 0 0 30.334 1.831 A 4921.977 4921.977 0 0 0 44.785 1.694 A 3750.976 3750.976 0 0 0 57.983 1.526 A 1129.53 1129.53 0 0 0 66.898 1.363 Q 73.898 1.205 79.468 0.977 Q 87.18 0.66 90.595 0.16 A 21.927 21.927 0 0 0 91.553 0 Z M 753.418 95.947 L 753.418 178.711 L 748.657 178.711 L 651.611 83.252 L 651.611 126.709 A 1705.618 1705.618 0 0 0 651.628 134.554 Q 651.657 140.762 651.733 145.874 A 526.019 526.019 0 0 0 651.851 151.69 Q 651.91 153.982 651.988 156.052 A 279.048 279.048 0 0 0 652.161 159.973 Q 652.37 164.043 652.696 167.219 A 81.528 81.528 0 0 0 653.015 169.922 A 54.945 54.945 0 0 0 653.429 172.518 Q 653.858 174.831 654.419 176.514 L 654.419 177.002 L 636.108 177.002 L 636.108 176.514 A 27.052 27.052 0 0 0 636.691 174.482 Q 637.182 172.503 637.573 169.922 Q 637.993 167.152 638.297 163.489 A 167.629 167.629 0 0 0 638.55 159.973 A 225.316 225.316 0 0 0 638.79 155.215 Q 638.962 150.986 639.038 145.874 Q 639.122 140.251 639.148 133.301 A 1749.252 1749.252 0 0 0 639.16 126.709 L 639.16 95.947 A 1699.976 1699.976 0 0 0 639.143 88.111 Q 639.114 81.917 639.038 76.843 A 406.698 406.698 0 0 0 638.912 71.064 Q 638.845 68.785 638.755 66.72 A 219.184 219.184 0 0 0 638.55 62.805 A 162.425 162.425 0 0 0 638.241 58.631 Q 637.955 55.374 637.573 52.856 Q 637.163 50.15 636.643 48.105 A 26.484 26.484 0 0 0 636.108 46.265 L 636.108 45.776 L 643.677 45.776 L 740.845 141.724 L 740.845 95.947 A 1699.976 1699.976 0 0 0 740.828 88.111 Q 740.799 81.917 740.723 76.843 A 521.49 521.49 0 0 0 740.605 71.064 Q 740.546 68.785 740.468 66.72 A 280.739 280.739 0 0 0 740.295 62.805 Q 739.99 56.885 739.502 52.856 Q 739.159 50.026 738.635 47.919 A 22.115 22.115 0 0 0 738.159 46.265 L 738.159 45.776 L 756.348 45.776 L 756.348 46.265 A 25.028 25.028 0 0 0 755.761 48.345 Q 755.497 49.449 755.271 50.738 A 57.006 57.006 0 0 0 754.944 52.856 A 96.6 96.6 0 0 0 754.558 56.144 Q 754.257 59.105 754.028 62.805 A 226.34 226.34 0 0 0 753.788 67.554 Q 753.616 71.77 753.54 76.843 Q 753.456 82.424 753.43 89.361 A 1744.477 1744.477 0 0 0 753.418 95.947 Z M 1617.065 95.947 L 1617.065 178.711 L 1612.305 178.711 L 1515.259 83.252 L 1515.259 126.709 A 1705.618 1705.618 0 0 0 1515.276 134.554 Q 1515.305 140.762 1515.381 145.874 A 526.019 526.019 0 0 0 1515.498 151.69 Q 1515.558 153.982 1515.635 156.052 A 279.048 279.048 0 0 0 1515.808 159.973 Q 1516.018 164.043 1516.343 167.219 A 81.528 81.528 0 0 0 1516.663 169.922 A 54.945 54.945 0 0 0 1517.076 172.518 Q 1517.506 174.831 1518.066 176.514 L 1518.066 177.002 L 1499.756 177.002 L 1499.756 176.514 A 27.052 27.052 0 0 0 1500.338 174.482 Q 1500.83 172.503 1501.221 169.922 Q 1501.64 167.152 1501.945 163.489 A 167.629 167.629 0 0 0 1502.197 159.973 A 225.316 225.316 0 0 0 1502.438 155.215 Q 1502.609 150.986 1502.686 145.874 Q 1502.769 140.251 1502.796 133.301 A 1749.252 1749.252 0 0 0 1502.808 126.709 L 1502.808 95.947 A 1699.976 1699.976 0 0 0 1502.79 88.111 Q 1502.762 81.917 1502.686 76.843 A 406.698 406.698 0 0 0 1502.56 71.064 Q 1502.493 68.785 1502.402 66.72 A 219.184 219.184 0 0 0 1502.197 62.805 A 162.425 162.425 0 0 0 1501.888 58.631 Q 1501.602 55.374 1501.221 52.856 Q 1500.811 50.15 1500.29 48.105 A 26.484 26.484 0 0 0 1499.756 46.265 L 1499.756 45.776 L 1507.324 45.776 L 1604.492 141.724 L 1604.492 95.947 A 1699.976 1699.976 0 0 0 1604.475 88.111 Q 1604.446 81.917 1604.37 76.843 A 521.49 521.49 0 0 0 1604.253 71.064 Q 1604.193 68.785 1604.116 66.72 A 280.739 280.739 0 0 0 1603.943 62.805 Q 1603.638 56.885 1603.149 52.856 Q 1602.806 50.026 1602.282 47.919 A 22.115 22.115 0 0 0 1601.807 46.265 L 1601.807 45.776 L 1619.995 45.776 L 1619.995 46.265 A 25.028 25.028 0 0 0 1619.409 48.345 Q 1619.144 49.449 1618.919 50.738 A 57.006 57.006 0 0 0 1618.591 52.856 A 96.6 96.6 0 0 0 1618.205 56.144 Q 1617.905 59.105 1617.676 62.805 A 226.34 226.34 0 0 0 1617.435 67.554 Q 1617.264 71.77 1617.188 76.843 Q 1617.104 82.424 1617.077 89.361 A 1744.477 1744.477 0 0 0 1617.065 95.947 Z M 1957.886 126.709 L 1957.886 114.258 A 559.167 559.167 0 0 1 1955.879 114.254 Q 1952.698 114.243 1948.486 114.197 A 1420.795 1420.795 0 0 1 1942.627 114.12 A 1806.84 1806.84 0 0 1 1936.279 114.014 A 1346.55 1346.55 0 0 0 1926.117 113.865 A 1497.357 1497.357 0 0 0 1922.607 113.831 A 1630.683 1630.683 0 0 0 1912.262 113.773 A 1463.679 1463.679 0 0 0 1908.936 113.77 A 576.094 576.094 0 0 0 1902.908 113.8 A 469.808 469.808 0 0 0 1897.278 113.892 A 321.026 321.026 0 0 0 1893.418 114 Q 1890.381 114.105 1887.939 114.258 L 1887.939 126.709 A 852.822 852.822 0 0 0 1887.974 134.554 Q 1888.002 137.658 1888.055 140.488 A 477.272 477.272 0 0 0 1888.184 145.874 Q 1888.428 154.053 1888.855 159.973 Q 1889.149 164.043 1889.529 167.219 A 87.677 87.677 0 0 0 1889.893 169.922 Q 1890.303 172.628 1890.823 174.674 A 26.484 26.484 0 0 0 1891.357 176.514 L 1891.357 177.002 L 1863.159 177.002 L 1863.159 176.514 A 29.6 29.6 0 0 0 1863.75 174.482 Q 1864.034 173.369 1864.294 172.065 A 68.156 68.156 0 0 0 1864.685 169.922 Q 1865.147 167.152 1865.493 163.489 A 159.439 159.439 0 0 0 1865.784 159.973 Q 1866.077 155.903 1866.285 150.765 A 468.461 468.461 0 0 0 1866.455 145.874 Q 1866.623 140.251 1866.675 133.301 A 874.627 874.627 0 0 0 1866.699 126.709 L 1866.699 95.947 A 850.001 850.001 0 0 0 1866.665 88.111 Q 1866.636 85.014 1866.584 82.197 A 468.754 468.754 0 0 0 1866.455 76.843 A 452.951 452.951 0 0 0 1866.246 71.064 Q 1866.051 66.505 1865.784 62.805 Q 1865.356 56.885 1864.685 52.856 A 65.813 65.813 0 0 0 1864.202 50.26 Q 1863.961 49.103 1863.7 48.105 A 28.973 28.973 0 0 0 1863.159 46.265 L 1863.159 45.776 L 1891.357 45.776 L 1891.357 46.265 A 27.052 27.052 0 0 0 1890.775 48.296 Q 1890.284 50.276 1889.893 52.856 A 91.173 91.173 0 0 0 1889.461 56.144 Q 1889.122 59.105 1888.855 62.805 Q 1888.561 66.875 1888.354 71.984 A 465.215 465.215 0 0 0 1888.184 76.843 Q 1887.939 84.961 1887.939 95.947 L 1887.939 104.248 L 1905.884 104.248 A 1600.956 1600.956 0 0 0 1912.781 104.233 A 1869.886 1869.886 0 0 0 1920.044 104.187 A 25387.878 25387.878 0 0 0 1932.701 104.08 A 22908.409 22908.409 0 0 0 1934.448 104.065 A 1286.655 1286.655 0 0 0 1941.193 103.989 A 1057.51 1057.51 0 0 0 1947.51 103.882 A 394.677 394.677 0 0 0 1951.83 103.773 Q 1955.215 103.668 1957.886 103.516 L 1957.886 95.947 A 850.001 850.001 0 0 0 1957.851 88.111 Q 1957.823 85.014 1957.77 82.197 A 468.754 468.754 0 0 0 1957.642 76.843 A 452.951 452.951 0 0 0 1957.433 71.064 Q 1957.237 66.505 1956.97 62.805 Q 1956.676 58.735 1956.296 55.559 A 87.677 87.677 0 0 0 1955.933 52.856 Q 1955.523 50.15 1955.002 48.105 A 26.484 26.484 0 0 0 1954.468 46.265 L 1954.468 45.776 L 1982.666 45.776 L 1982.666 46.265 A 29.6 29.6 0 0 0 1982.075 48.296 Q 1981.791 49.41 1981.531 50.713 A 68.156 68.156 0 0 0 1981.14 52.856 Q 1980.679 55.626 1980.332 59.29 A 159.439 159.439 0 0 0 1980.042 62.805 Q 1979.748 66.875 1979.541 71.984 A 465.215 465.215 0 0 0 1979.37 76.843 Q 1979.126 84.961 1979.126 95.947 L 1979.126 126.709 A 852.822 852.822 0 0 0 1979.16 134.554 Q 1979.189 137.658 1979.241 140.488 A 477.272 477.272 0 0 0 1979.37 145.874 Q 1979.614 154.053 1980.042 159.973 Q 1980.469 165.894 1981.14 169.922 A 65.813 65.813 0 0 0 1981.623 172.518 Q 1981.864 173.675 1982.125 174.674 A 28.973 28.973 0 0 0 1982.666 176.514 L 1982.666 177.002 L 1954.468 177.002 L 1954.468 176.514 A 27.052 27.052 0 0 0 1955.05 174.482 Q 1955.542 172.503 1955.933 169.922 A 91.173 91.173 0 0 0 1956.365 166.635 Q 1956.703 163.673 1956.97 159.973 Q 1957.264 155.903 1957.471 150.765 A 468.461 468.461 0 0 0 1957.642 145.874 Q 1957.809 140.251 1957.862 133.301 A 874.627 874.627 0 0 0 1957.886 126.709 Z M 1835.205 155.273 L 1835.205 162.231 A 13.833 13.833 0 0 1 1835.162 163.353 Q 1835.091 164.23 1834.9 164.917 A 3.03 3.03 0 0 1 1833.996 166.359 A 4.138 4.138 0 0 1 1833.496 166.748 Q 1824.829 172.852 1813.293 176.453 A 75.035 75.035 0 0 1 1801.188 179.096 Q 1795.224 179.919 1788.482 180.035 A 129.816 129.816 0 0 1 1786.255 180.054 Q 1768.799 180.054 1754.456 175.049 A 78.841 78.841 0 0 1 1738.308 167.36 A 67.403 67.403 0 0 1 1729.858 161.072 Q 1719.604 152.1 1713.928 139.526 Q 1708.252 126.953 1708.252 111.694 A 64.863 64.863 0 0 1 1713.44 86.304 Q 1718.628 73.975 1728.394 64.453 A 70.941 70.941 0 0 1 1746.019 51.988 A 84.879 84.879 0 0 1 1752.136 49.194 A 75.947 75.947 0 0 1 1771.522 44.198 A 96.853 96.853 0 0 1 1783.691 43.457 Q 1792.847 43.457 1801.025 44.495 Q 1809.204 45.532 1816.772 47.729 L 1825.928 69.702 L 1824.707 70.557 A 53.87 53.87 0 0 0 1807.007 57.19 A 50.358 50.358 0 0 0 1792.267 52.857 A 65.041 65.041 0 0 0 1783.203 52.246 A 59.545 59.545 0 0 0 1770.162 53.629 A 51.06 51.06 0 0 0 1763 55.786 Q 1753.784 59.326 1747.009 66.101 Q 1740.234 72.876 1736.45 82.764 A 56.282 56.282 0 0 0 1733.291 95.452 A 73.64 73.64 0 0 0 1732.666 105.225 A 99.549 99.549 0 0 0 1734.049 122.114 A 83.762 83.762 0 0 0 1736.206 131.47 A 64.067 64.067 0 0 0 1742.013 145.31 A 55.121 55.121 0 0 0 1746.826 152.405 Q 1753.906 161.255 1764.343 166.26 A 49.82 49.82 0 0 0 1777.964 170.439 A 66.846 66.846 0 0 0 1788.696 171.265 A 75.745 75.745 0 0 0 1795.655 170.967 Q 1802.503 170.333 1807.006 168.351 A 21.842 21.842 0 0 0 1807.312 168.213 A 23.209 23.209 0 0 0 1809.904 166.837 Q 1812.582 165.168 1813.494 163.273 A 4.604 4.604 0 0 0 1813.965 161.255 L 1813.965 154.785 A 564.762 564.762 0 0 0 1813.948 150.265 Q 1813.919 146.698 1813.843 143.799 A 235.684 235.684 0 0 0 1813.734 140.5 Q 1813.629 137.901 1813.477 135.803 A 77.949 77.949 0 0 0 1813.268 133.414 Q 1813.146 132.237 1812.995 131.2 A 41.001 41.001 0 0 0 1812.805 130.005 A 44.564 44.564 0 0 0 1812.208 127.131 A 36.311 36.311 0 0 0 1811.768 125.488 L 1811.768 125 L 1837.769 125 L 1837.769 125.488 Q 1837.301 126.89 1836.906 128.721 A 48.182 48.182 0 0 0 1836.67 129.883 Q 1836.182 132.446 1835.876 135.986 A 134.071 134.071 0 0 0 1835.665 138.813 Q 1835.503 141.312 1835.388 144.287 Q 1835.205 149.048 1835.205 155.273 Z M 1009.033 131.958 L 1009.033 95.459 Q 1009.033 84.595 1008.911 76.538 Q 1008.789 68.481 1008.423 62.622 A 254.127 254.127 0 0 0 1008.232 59.811 Q 1007.935 55.771 1007.568 52.795 Q 1007.217 49.94 1006.739 47.812 A 27.884 27.884 0 0 0 1006.348 46.265 L 1006.348 45.776 L 1024.292 45.776 L 1024.292 46.265 A 28.951 28.951 0 0 0 1023.797 48.296 Q 1023.591 49.286 1023.409 50.426 A 66.104 66.104 0 0 0 1023.071 52.856 Q 1022.583 56.885 1022.217 62.805 A 226.34 226.34 0 0 0 1021.976 67.554 Q 1021.805 71.77 1021.729 76.843 Q 1021.645 82.424 1021.618 89.361 A 1744.477 1744.477 0 0 0 1021.606 95.947 L 1021.606 130.981 A 71.065 71.065 0 0 1 1020.932 141.048 Q 1019.945 147.934 1017.517 153.442 A 42.352 42.352 0 0 1 1010.905 164.062 A 37.95 37.95 0 0 1 1006.226 168.64 A 44.233 44.233 0 0 1 993.296 175.954 A 53.199 53.199 0 0 1 989.075 177.307 A 75.62 75.62 0 0 1 975.9 179.667 A 93.501 93.501 0 0 1 967.285 180.054 A 95.922 95.922 0 0 1 952.999 179.029 A 80.003 80.003 0 0 1 945.068 177.429 A 52.555 52.555 0 0 1 933.86 173.215 A 44.535 44.535 0 0 1 927.307 169.067 A 39.342 39.342 0 0 1 916.307 155.861 A 46.282 46.282 0 0 1 915.466 154.175 A 42.699 42.699 0 0 1 912.216 144.043 Q 911.336 139.53 911.171 134.373 A 75.501 75.501 0 0 1 911.133 131.958 L 911.133 95.947 A 850.001 850.001 0 0 0 911.098 88.111 Q 911.07 85.014 911.017 82.197 A 468.754 468.754 0 0 0 910.889 76.843 Q 910.645 68.726 910.156 62.805 A 211.86 211.86 0 0 0 909.773 58.631 Q 909.606 57.003 909.427 55.559 A 100.856 100.856 0 0 0 909.058 52.856 Q 908.648 50.15 908.127 48.105 A 26.484 26.484 0 0 0 907.593 46.265 L 907.593 45.776 L 935.791 45.776 L 935.791 46.265 A 27.775 27.775 0 0 0 935.187 48.373 Q 934.709 50.308 934.326 52.795 A 87.997 87.997 0 0 0 933.894 56.037 Q 933.725 57.498 933.573 59.145 A 184.821 184.821 0 0 0 933.289 62.622 A 246.413 246.413 0 0 0 932.994 67.326 Q 932.882 69.414 932.788 71.717 A 456.878 456.878 0 0 0 932.617 76.538 Q 932.373 84.595 932.373 95.459 L 932.373 131.958 Q 932.373 142.822 935.669 149.841 Q 938.965 156.86 944.336 161.011 Q 949.707 165.161 956.543 166.809 A 59.688 59.688 0 0 0 970.581 168.457 A 60.983 60.983 0 0 0 984.802 166.809 A 32.497 32.497 0 0 0 997.131 161.011 Q 1002.563 156.86 1005.798 149.841 A 31.847 31.847 0 0 0 1007.952 143.235 Q 1009.033 138.239 1009.033 131.958 Z M 296.387 44.312 L 291.626 57.495 A 82.682 82.682 0 0 0 288.116 56.671 Q 286.262 56.276 284.196 55.911 A 142.562 142.562 0 0 0 284.18 55.908 Q 280.518 55.298 275.33 54.749 A 91.72 91.72 0 0 0 270.475 54.373 Q 267.982 54.243 265.196 54.21 A 161.633 161.633 0 0 0 263.306 54.199 A 78.738 78.738 0 0 0 261.029 54.234 Q 259.864 54.268 258.569 54.334 A 136.772 136.772 0 0 0 257.69 54.382 A 247.243 247.243 0 0 0 253.067 54.691 A 219.693 219.693 0 0 0 251.587 54.81 Q 248.169 55.054 244.629 55.298 L 244.629 103.516 A 627.649 627.649 0 0 0 253.889 103.336 Q 258.422 103.213 262.451 103.027 A 303.886 303.886 0 0 0 268.076 102.718 Q 270.836 102.54 273.241 102.323 A 148.516 148.516 0 0 0 276.001 102.051 A 154.531 154.531 0 0 0 281.465 101.553 Q 283.953 101.28 286.159 100.941 A 87.325 87.325 0 0 0 287.598 100.708 L 284.668 115.234 A 363.025 363.025 0 0 0 271.118 113.77 A 260.83 260.83 0 0 0 264.954 113.205 A 344.448 344.448 0 0 0 258.179 112.732 A 233.174 233.174 0 0 0 247.902 112.331 A 202.971 202.971 0 0 0 244.629 112.305 L 244.629 167.725 A 248.927 248.927 0 0 0 255.524 167.496 A 192.53 192.53 0 0 0 265.503 166.809 A 380.256 380.256 0 0 0 272.301 166.097 Q 275.999 165.674 279.246 165.217 A 203.478 203.478 0 0 0 282.104 164.795 A 200.422 200.422 0 0 0 290.009 163.361 A 149.917 149.917 0 0 0 297.119 161.743 L 294.312 177.734 A 115.306 115.306 0 0 0 293.255 177.67 Q 291.548 177.572 288.693 177.443 A 811.945 811.945 0 0 0 288.391 177.429 A 267.064 267.064 0 0 0 282.051 177.223 A 303.023 303.023 0 0 0 279.846 177.185 Q 275.391 177.124 271.484 177.063 A 1051.523 1051.523 0 0 0 269.735 177.037 Q 267.223 177.002 266.113 177.002 L 219.849 177.002 L 219.849 176.514 A 29.6 29.6 0 0 0 220.439 174.482 Q 220.723 173.369 220.984 172.065 A 68.156 68.156 0 0 0 221.375 169.922 Q 221.836 167.152 222.182 163.489 A 159.439 159.439 0 0 0 222.473 159.973 Q 222.767 155.903 222.974 150.765 A 468.461 468.461 0 0 0 223.145 145.874 Q 223.312 140.251 223.365 133.301 A 874.627 874.627 0 0 0 223.389 126.709 L 223.389 95.947 A 850.001 850.001 0 0 0 223.354 88.111 Q 223.326 85.014 223.273 82.197 A 468.754 468.754 0 0 0 223.145 76.843 A 452.951 452.951 0 0 0 222.936 71.064 Q 222.74 66.505 222.473 62.805 Q 222.046 56.885 221.375 52.856 A 65.813 65.813 0 0 0 220.891 50.26 Q 220.65 49.103 220.39 48.105 A 28.973 28.973 0 0 0 219.849 46.265 L 219.849 45.776 Q 231.812 45.776 244.385 45.715 A 2159.495 2159.495 0 0 0 256.5 45.624 A 1706.227 1706.227 0 0 0 267.7 45.471 Q 275.085 45.345 281.057 45.191 A 923.146 923.146 0 0 0 286.194 45.044 Q 292.87 44.834 295.607 44.442 A 14.449 14.449 0 0 0 296.387 44.312 Z M 608.154 44.312 L 603.394 57.495 A 82.682 82.682 0 0 0 599.884 56.671 Q 598.03 56.276 595.963 55.911 A 142.562 142.562 0 0 0 595.947 55.908 Q 592.285 55.298 587.097 54.749 A 91.72 91.72 0 0 0 582.242 54.373 Q 579.749 54.243 576.963 54.21 A 161.633 161.633 0 0 0 575.073 54.199 A 78.738 78.738 0 0 0 572.797 54.234 Q 571.632 54.268 570.336 54.334 A 136.772 136.772 0 0 0 569.458 54.382 A 247.243 247.243 0 0 0 564.835 54.691 A 219.693 219.693 0 0 0 563.354 54.81 Q 559.937 55.054 556.396 55.298 L 556.396 103.516 A 627.649 627.649 0 0 0 565.657 103.336 Q 570.189 103.213 574.219 103.027 A 303.886 303.886 0 0 0 579.844 102.718 Q 582.603 102.54 585.009 102.323 A 148.516 148.516 0 0 0 587.769 102.051 A 154.531 154.531 0 0 0 593.233 101.553 Q 595.721 101.28 597.926 100.941 A 87.325 87.325 0 0 0 599.365 100.708 L 596.436 115.234 A 363.025 363.025 0 0 0 582.886 113.77 A 260.83 260.83 0 0 0 576.721 113.205 A 344.448 344.448 0 0 0 569.946 112.732 A 233.174 233.174 0 0 0 559.669 112.331 A 202.971 202.971 0 0 0 556.396 112.305 L 556.396 167.725 A 248.927 248.927 0 0 0 567.291 167.496 A 192.53 192.53 0 0 0 577.271 166.809 A 380.256 380.256 0 0 0 584.068 166.097 Q 587.766 165.674 591.013 165.217 A 203.478 203.478 0 0 0 593.872 164.795 A 200.422 200.422 0 0 0 601.776 163.361 A 149.917 149.917 0 0 0 608.887 161.743 L 606.079 177.734 A 115.306 115.306 0 0 0 605.022 177.67 Q 603.315 177.572 600.461 177.443 A 811.945 811.945 0 0 0 600.159 177.429 A 267.064 267.064 0 0 0 593.819 177.223 A 303.023 303.023 0 0 0 591.614 177.185 Q 587.158 177.124 583.252 177.063 A 1051.523 1051.523 0 0 0 581.503 177.037 Q 578.991 177.002 577.881 177.002 L 531.616 177.002 L 531.616 176.514 A 29.6 29.6 0 0 0 532.207 174.482 Q 532.491 173.369 532.751 172.065 A 68.156 68.156 0 0 0 533.142 169.922 Q 533.604 167.152 533.95 163.489 A 159.439 159.439 0 0 0 534.241 159.973 Q 534.534 155.903 534.742 150.765 A 468.461 468.461 0 0 0 534.912 145.874 Q 535.08 140.251 535.132 133.301 A 874.627 874.627 0 0 0 535.156 126.709 L 535.156 95.947 A 850.001 850.001 0 0 0 535.122 88.111 Q 535.093 85.014 535.041 82.197 A 468.754 468.754 0 0 0 534.912 76.843 A 452.951 452.951 0 0 0 534.703 71.064 Q 534.508 66.505 534.241 62.805 Q 533.813 56.885 533.142 52.856 A 65.813 65.813 0 0 0 532.659 50.26 Q 532.418 49.103 532.157 48.105 A 28.973 28.973 0 0 0 531.616 46.265 L 531.616 45.776 Q 543.579 45.776 556.152 45.715 A 2159.495 2159.495 0 0 0 568.268 45.624 A 1706.227 1706.227 0 0 0 579.468 45.471 Q 586.853 45.345 592.825 45.191 A 923.146 923.146 0 0 0 597.961 45.044 Q 604.637 44.834 607.375 44.442 A 14.449 14.449 0 0 0 608.154 44.312 Z M 2194.946 50.537 L 2194.336 71.289 L 2191.895 71.289 Q 2191.162 69.214 2189.514 66.04 A 27.83 27.83 0 0 0 2187.025 62.12 A 34.417 34.417 0 0 0 2185.12 59.814 A 23.376 23.376 0 0 0 2180.279 55.752 A 27.904 27.904 0 0 0 2178.345 54.626 A 17.743 17.743 0 0 0 2173.311 52.899 Q 2171.158 52.49 2168.701 52.49 A 22.329 22.329 0 0 0 2164.658 52.841 A 17.451 17.451 0 0 0 2161.072 53.894 A 17.064 17.064 0 0 0 2156.823 56.415 A 15.493 15.493 0 0 0 2155.396 57.739 A 16.414 16.414 0 0 0 2151.953 63.277 A 18.818 18.818 0 0 0 2151.855 63.538 Q 2150.635 66.895 2150.635 70.801 A 20.943 20.943 0 0 0 2153.579 81.442 A 25.863 25.863 0 0 0 2154.48 82.886 A 67.91 67.91 0 0 0 2159.713 89.677 A 85.957 85.957 0 0 0 2164.062 94.299 A 224.247 224.247 0 0 0 2173.218 102.848 A 256.58 256.58 0 0 0 2176.514 105.713 A 145.026 145.026 0 0 1 2188.965 117.676 A 68.733 68.733 0 0 1 2197.556 129.131 A 63.311 63.311 0 0 1 2198.547 130.859 A 30.312 30.312 0 0 1 2202.393 145.752 A 35.329 35.329 0 0 1 2201.289 154.364 A 42.716 42.716 0 0 1 2200.256 157.837 A 30.559 30.559 0 0 1 2193.359 169.067 A 33.619 33.619 0 0 1 2186.359 174.632 A 43.526 43.526 0 0 1 2181.152 177.307 Q 2174.571 180.166 2165.511 180.498 A 66.195 66.195 0 0 1 2163.086 180.542 A 63.358 63.358 0 0 1 2154.266 179.946 A 56.279 56.279 0 0 1 2151.917 179.565 A 89.327 89.327 0 0 1 2145.912 178.255 A 71.848 71.848 0 0 1 2142.151 177.185 A 72.09 72.09 0 0 1 2137.939 175.72 A 53.912 53.912 0 0 1 2134.216 174.133 A 75.584 75.584 0 0 1 2131.77 172.923 Q 2129.868 171.936 2128.418 171.021 L 2130.615 147.949 L 2133.179 147.949 A 38.896 38.896 0 0 0 2135.662 154.358 A 45.262 45.262 0 0 0 2136.78 156.494 Q 2139.16 160.767 2142.639 164.246 A 27.592 27.592 0 0 0 2150.818 169.861 A 23.509 23.509 0 0 0 2157.219 171.694 A 30.78 30.78 0 0 0 2161.621 171.997 A 23.142 23.142 0 0 0 2168.964 170.844 A 21.914 21.914 0 0 0 2169.678 170.593 A 19.795 19.795 0 0 0 2174.77 167.835 A 18.172 18.172 0 0 0 2176.208 166.626 A 17.981 17.981 0 0 0 2180.127 161.252 A 20.947 20.947 0 0 0 2180.542 160.339 A 19.783 19.783 0 0 0 2181.97 154.821 A 24.787 24.787 0 0 0 2182.129 151.978 A 24.054 24.054 0 0 0 2180.565 143.273 A 22.967 22.967 0 0 0 2179.932 141.785 A 39.617 39.617 0 0 0 2175.5 134.527 A 45.874 45.874 0 0 0 2174.072 132.751 A 78.405 78.405 0 0 0 2167.102 125.529 A 87.696 87.696 0 0 0 2165.833 124.39 A 729.067 729.067 0 0 0 2156.372 116.211 A 237.457 237.457 0 0 1 2146.912 107.727 A 68.725 68.725 0 0 1 2138.672 98.389 A 46.373 46.373 0 0 1 2132.812 87.708 A 32.707 32.707 0 0 1 2130.789 78.949 A 39.707 39.707 0 0 1 2130.615 75.195 A 29.187 29.187 0 0 1 2131.635 67.357 A 25.159 25.159 0 0 1 2133.667 62.256 Q 2136.719 56.519 2141.724 52.551 A 36.613 36.613 0 0 1 2152.196 46.793 A 41.659 41.659 0 0 1 2153.198 46.448 Q 2159.668 44.312 2166.626 44.312 A 63.538 63.538 0 0 1 2172.772 44.598 A 52.526 52.526 0 0 1 2176.208 45.044 A 81.087 81.087 0 0 1 2180.45 45.853 A 61.305 61.305 0 0 1 2184.265 46.814 Q 2187.36 47.706 2189.778 48.597 A 53.451 53.451 0 0 1 2190.552 48.889 A 308.593 308.593 0 0 0 2191.833 49.381 Q 2193.665 50.079 2194.946 50.537 Z M 821.899 126.709 L 821.899 54.81 A 219.97 219.97 0 0 0 811.295 55.054 A 164.359 164.359 0 0 0 801.697 55.786 Q 792.603 56.763 786.011 57.861 A 207.032 207.032 0 0 0 778.809 59.265 A 153.906 153.906 0 0 0 772.339 60.791 L 774.78 45.044 A 24.478 24.478 0 0 0 775.841 45.158 Q 777.458 45.302 780.12 45.39 A 169.564 169.564 0 0 0 780.762 45.41 A 505.56 505.56 0 0 0 785.019 45.517 A 585.26 585.26 0 0 0 789.49 45.593 A 5936.477 5936.477 0 0 1 793.945 45.654 A 5013.186 5013.186 0 0 1 798.157 45.715 A 1119.411 1119.411 0 0 0 799.991 45.741 Q 802.012 45.768 803.19 45.774 A 121.826 121.826 0 0 0 803.833 45.776 L 861.572 45.776 Q 862.774 45.776 865.661 45.735 A 1172.358 1172.358 0 0 0 867.004 45.715 A 4125.403 4125.403 0 0 1 871.109 45.654 A 5010.17 5010.17 0 0 1 875.488 45.593 A 563.795 563.795 0 0 0 882.057 45.467 A 496.364 496.364 0 0 0 884.155 45.41 Q 888.306 45.288 890.137 45.044 L 892.578 60.791 Q 887.108 59.309 880.148 58.041 A 214.655 214.655 0 0 0 879.15 57.861 A 190.127 190.127 0 0 0 873.929 57.055 Q 871.6 56.726 869.014 56.408 A 363.461 363.461 0 0 0 863.586 55.786 A 163.869 163.869 0 0 0 853.928 55.054 Q 848.896 54.813 843.317 54.81 A 263.352 263.352 0 0 0 843.14 54.81 L 843.14 126.709 A 852.822 852.822 0 0 0 843.174 134.554 Q 843.203 137.658 843.255 140.488 A 477.272 477.272 0 0 0 843.384 145.874 Q 843.628 154.053 844.055 159.973 Q 844.349 164.043 844.729 167.219 A 87.677 87.677 0 0 0 845.093 169.922 Q 845.503 172.628 846.023 174.674 A 26.484 26.484 0 0 0 846.558 176.514 L 846.558 177.002 L 818.359 177.002 L 818.359 176.514 A 27.052 27.052 0 0 0 818.942 174.482 Q 819.433 172.503 819.824 169.922 Q 820.244 167.152 820.606 163.489 A 218.654 218.654 0 0 0 820.923 159.973 A 201.639 201.639 0 0 0 821.255 155.215 Q 821.379 153.1 821.479 150.765 A 376.738 376.738 0 0 0 821.655 145.874 Q 821.823 140.251 821.876 133.301 A 874.627 874.627 0 0 0 821.899 126.709 Z M 2048.218 126.709 L 2048.218 54.81 A 219.97 219.97 0 0 0 2037.613 55.054 A 164.359 164.359 0 0 0 2028.015 55.786 Q 2018.921 56.763 2012.329 57.861 A 207.032 207.032 0 0 0 2005.127 59.265 A 153.906 153.906 0 0 0 1998.657 60.791 L 2001.099 45.044 A 24.478 24.478 0 0 0 2002.159 45.158 Q 2003.777 45.302 2006.438 45.39 A 169.564 169.564 0 0 0 2007.08 45.41 A 505.56 505.56 0 0 0 2011.337 45.517 A 585.26 585.26 0 0 0 2015.808 45.593 A 5936.477 5936.477 0 0 1 2020.264 45.654 A 5013.186 5013.186 0 0 1 2024.475 45.715 A 1119.411 1119.411 0 0 0 2026.309 45.741 Q 2028.33 45.768 2029.509 45.774 A 121.826 121.826 0 0 0 2030.151 45.776 L 2087.891 45.776 Q 2089.093 45.776 2091.98 45.735 A 1172.358 1172.358 0 0 0 2093.323 45.715 A 4125.403 4125.403 0 0 1 2097.427 45.654 A 5010.17 5010.17 0 0 1 2101.807 45.593 A 563.795 563.795 0 0 0 2108.376 45.467 A 496.364 496.364 0 0 0 2110.474 45.41 Q 2114.624 45.288 2116.455 45.044 L 2118.896 60.791 Q 2113.426 59.309 2106.466 58.041 A 214.655 214.655 0 0 0 2105.469 57.861 A 190.127 190.127 0 0 0 2100.247 57.055 Q 2097.918 56.726 2095.332 56.408 A 363.461 363.461 0 0 0 2089.905 55.786 A 163.869 163.869 0 0 0 2080.246 55.054 Q 2075.214 54.813 2069.635 54.81 A 263.352 263.352 0 0 0 2069.458 54.81 L 2069.458 126.709 A 852.822 852.822 0 0 0 2069.492 134.554 Q 2069.521 137.658 2069.573 140.488 A 477.272 477.272 0 0 0 2069.702 145.874 Q 2069.946 154.053 2070.374 159.973 Q 2070.667 164.043 2071.048 167.219 A 87.677 87.677 0 0 0 2071.411 169.922 Q 2071.821 172.628 2072.342 174.674 A 26.484 26.484 0 0 0 2072.876 176.514 L 2072.876 177.002 L 2044.678 177.002 L 2044.678 176.514 A 27.052 27.052 0 0 0 2045.26 174.482 Q 2045.752 172.503 2046.143 169.922 Q 2046.562 167.152 2046.924 163.489 A 218.654 218.654 0 0 0 2047.241 159.973 A 201.639 201.639 0 0 0 2047.573 155.215 Q 2047.697 153.1 2047.797 150.765 A 376.738 376.738 0 0 0 2047.974 145.874 Q 2048.141 140.251 2048.194 133.301 A 874.627 874.627 0 0 0 2048.218 126.709 Z M 145.874 95.947 L 145.874 167.48 A 246.225 246.225 0 0 0 158.086 167.191 A 192.116 192.116 0 0 0 166.809 166.565 A 384.345 384.345 0 0 0 174.738 165.729 Q 178.341 165.309 181.521 164.856 A 210.121 210.121 0 0 0 183.594 164.551 A 207.755 207.755 0 0 0 191.62 163.116 A 156.035 156.035 0 0 0 198.853 161.499 L 196.045 177.734 A 86.813 86.813 0 0 0 195.042 177.67 Q 193.314 177.567 190.247 177.429 A 256.387 256.387 0 0 0 186.05 177.277 A 297.177 297.177 0 0 0 181.641 177.185 A 4461.925 4461.925 0 0 1 177.277 177.124 A 3589.784 3589.784 0 0 1 173.218 177.063 A 1051.523 1051.523 0 0 0 171.469 177.037 Q 168.957 177.002 167.847 177.002 L 121.094 177.002 L 121.094 176.514 A 29.6 29.6 0 0 0 121.684 174.482 Q 121.968 173.369 122.229 172.065 A 68.156 68.156 0 0 0 122.62 169.922 Q 123.081 167.152 123.427 163.489 A 159.439 159.439 0 0 0 123.718 159.973 Q 124.012 155.903 124.219 150.765 A 468.461 468.461 0 0 0 124.39 145.874 Q 124.557 140.251 124.61 133.301 A 874.627 874.627 0 0 0 124.634 126.709 L 124.634 95.947 A 850.001 850.001 0 0 0 124.599 88.111 Q 124.571 85.014 124.518 82.197 A 468.754 468.754 0 0 0 124.39 76.843 A 452.951 452.951 0 0 0 124.181 71.064 Q 123.985 66.505 123.718 62.805 Q 123.291 56.885 122.62 52.856 A 65.813 65.813 0 0 0 122.136 50.26 Q 121.895 49.103 121.635 48.105 A 28.973 28.973 0 0 0 121.094 46.265 L 121.094 45.776 L 149.292 45.776 L 149.292 46.265 A 27.052 27.052 0 0 0 148.709 48.296 Q 148.218 50.276 147.827 52.856 A 91.173 91.173 0 0 0 147.395 56.144 Q 147.057 59.105 146.79 62.805 Q 146.496 66.875 146.289 71.984 A 465.215 465.215 0 0 0 146.118 76.843 Q 145.874 84.961 145.874 95.947 Z M 1656.494 126.709 L 1656.494 95.947 A 850.001 850.001 0 0 0 1656.46 88.111 Q 1656.431 85.014 1656.379 82.197 A 468.754 468.754 0 0 0 1656.25 76.843 A 452.951 452.951 0 0 0 1656.041 71.064 Q 1655.846 66.505 1655.579 62.805 Q 1655.151 56.885 1654.48 52.856 A 65.813 65.813 0 0 0 1653.997 50.26 Q 1653.756 49.103 1653.495 48.105 A 28.973 28.973 0 0 0 1652.954 46.265 L 1652.954 45.776 L 1681.274 45.776 L 1681.274 46.265 A 29.6 29.6 0 0 0 1680.684 48.296 Q 1680.4 49.41 1680.139 50.713 A 68.156 68.156 0 0 0 1679.749 52.856 Q 1679.287 55.626 1678.941 59.29 A 159.439 159.439 0 0 0 1678.65 62.805 Q 1678.356 66.875 1678.149 71.984 A 465.215 465.215 0 0 0 1677.979 76.843 Q 1677.734 84.961 1677.734 95.947 L 1677.734 126.709 A 852.822 852.822 0 0 0 1677.769 134.554 Q 1677.797 137.658 1677.85 140.488 A 477.272 477.272 0 0 0 1677.979 145.874 Q 1678.223 154.053 1678.65 159.973 Q 1679.077 165.894 1679.749 169.922 A 65.813 65.813 0 0 0 1680.232 172.518 Q 1680.473 173.675 1680.733 174.674 A 28.973 28.973 0 0 0 1681.274 176.514 L 1681.274 177.002 L 1652.954 177.002 L 1652.954 176.514 A 29.6 29.6 0 0 0 1653.545 174.482 Q 1653.829 173.369 1654.089 172.065 A 68.156 68.156 0 0 0 1654.48 169.922 Q 1654.942 167.152 1655.288 163.489 A 159.439 159.439 0 0 0 1655.579 159.973 Q 1655.872 155.903 1656.08 150.765 A 468.461 468.461 0 0 0 1656.25 145.874 Q 1656.418 140.251 1656.47 133.301 A 874.627 874.627 0 0 0 1656.494 126.709 Z" vector-effect="non-scaling-stroke"/></g></svg>
