<?xml version="1.0" encoding="utf-8"?>
<!-- Generator: Adobe Illustrator 24.2.0, SVG Export Plug-In . SVG Version: 6.00 Build 0)  -->
<svg version="1.1" id="Layer_1" xmlns="http://www.w3.org/2000/svg" xmlns:xlink="http://www.w3.org/1999/xlink" x="0px" y="0px"
	 viewBox="0 0 863.7 109.5" style="enable-background:new 0 0 863.7 109.5;" xml:space="preserve">
<style type="text/css">
	.st0{fill-rule:evenodd;clip-rule:evenodd;fill:#FFFFFF;}
</style>
<g id="svgGroup">
	<path vector-effect="non-scaling-stroke" class="st0" d="M210.9,107.1v-0.2c0.2-0.2,0.4-0.5,0.5-0.7c0.4-0.6,0.8-1.3,1.3-2.2
		c0.3-0.5,0.5-1,0.7-1.6c0.4-1,0.7-2,0.9-3.2c0.3-1.5,0.6-2.9,0.8-4.4c0.3-1.5,0.6-3.1,0.9-4.8c0-0.1,0-0.2,0.1-0.3
		c0.5-2.7,1-5.5,1.5-8.2c0.2-1,0.4-1.9,0.5-2.9c0.7-4,1.4-7.9,2.1-11.9c0.7-4.1,1.4-8.1,2.1-12c0.5-2.9,1-5.7,1.4-8.6
		c0.2-0.9,0.3-1.8,0.5-2.8c0.3-1.7,0.6-3.5,0.9-5.2c0.3-1.6,0.5-3.2,0.8-4.8c0.2-1.1,0.3-2.2,0.5-3.2c0.1-0.9,0.3-1.7,0.4-2.4
		c0.1-0.7,0.2-1.5,0.3-2.2c0.2-1.7,0.4-3.1,0.6-4.2c0-0.3,0.1-0.6,0.1-0.9h9.3l46.1,71.2l45.7-71.2h7l12,71.9
		c0.3,1.7,0.5,3.3,0.8,4.6c0.1,0.4,0.2,0.8,0.3,1.2c0.1,0.6,0.3,1.1,0.4,1.7c0.2,0.6,0.3,1.1,0.5,1.6c0.1,0.3,0.2,0.6,0.3,0.8
		c0.4,1.2,0.8,2.1,1.1,2.8c0.3,0.6,0.5,1.1,0.8,1.5c0.1,0.1,0.2,0.3,0.3,0.4v0.2h-18.5v-0.2c0.1-0.1,0.1-0.3,0.2-0.4
		c0.2-0.4,0.3-1,0.5-1.7c0.1-0.4,0.2-0.9,0.2-1.3c0-0.4,0.1-0.9,0.1-1.4c0-0.3,0-0.6,0-0.9c0-0.5,0-1.1-0.1-1.6
		c0-0.3-0.1-0.6-0.1-0.9c0-0.3-0.1-0.6-0.1-0.9l-9.3-58l-43.2,67.2l-5.1-0.5l-43.5-67.3c-1.7,9.6-3.2,18.4-4.5,26.5
		c-0.5,3.5-1.1,6.9-1.6,10.4c-0.3,1.7-0.5,3.3-0.8,5c-0.2,1.6-0.5,3.1-0.7,4.7c-0.4,3-0.7,5.6-1,7.9c-0.1,0.5-0.1,1.1-0.2,1.6
		c-0.1,1.5-0.2,2.6-0.2,3.4c0,0,0,0,0,0.1c0,0.6,0,1.1,0,1.7c0,0.5,0,1,0.1,1.5c0,0.2,0,0.3,0,0.5c0,0.4,0.1,0.7,0.1,1.1
		c0,0.3,0.1,0.6,0.1,0.8c0,0.2,0.1,0.5,0.1,0.7c0.1,0.7,0.3,1.4,0.4,2c0,0.1,0,0.2,0.1,0.3H210.9z M441.7,20.3h4.7l75.4,66.3V44
		c0-1.2,0-2.5,0-3.7c0-1,0-1.9,0-2.8c0-0.8,0-1.7-0.1-2.5c0-0.9-0.1-1.8-0.1-2.7c-0.1-0.9-0.1-1.7-0.2-2.5c0-0.5-0.1-0.9-0.1-1.4
		c-0.1-0.6-0.1-1.3-0.2-1.9c-0.1-1-0.3-2-0.5-2.8c-0.2-0.9-0.4-1.8-0.6-2.5c-0.1-0.2-0.1-0.4-0.2-0.7v-0.2h13v0.2
		c-0.3,0.8-0.6,1.9-0.8,3.1c-0.2,1.3-0.5,2.8-0.7,4.7c-0.1,1.3-0.2,2.7-0.3,4.4c0,0.8-0.1,1.5-0.1,2.3c-0.1,1.8-0.1,3.7-0.1,5.9
		c0,1,0,2.1,0,3.1v64.3h-2.6L452.7,42v41.4c0,1.2,0,2.5,0,3.7c0,1,0,1.9,0,2.8c0,0.8,0,1.7,0.1,2.5c0.1,2,0.2,3.7,0.3,5.3
		c0,0.5,0.1,0.9,0.1,1.4c0.2,1.9,0.4,3.4,0.7,4.7c0,0,0,0,0,0c0.1,0.4,0.2,0.9,0.3,1.3c0.2,0.7,0.3,1.3,0.5,1.8v0.2h-13v-0.2
		c0.2-0.6,0.4-1.3,0.6-2c0.1-0.4,0.2-0.7,0.3-1.1c0.1-0.5,0.2-1,0.3-1.5c0.1-0.5,0.1-1,0.2-1.5c0.1-0.6,0.1-1.1,0.2-1.7
		c0.1-0.7,0.1-1.5,0.2-2.2c0.1-1.3,0.2-2.8,0.2-4.4c0.1-1.8,0.1-3.7,0.1-5.9c0-1,0-2.1,0-3.1V44c0-1.2,0-2.5,0-3.7c0-1,0-1.9,0-2.8
		c0-0.8,0-1.7-0.1-2.5c0-0.9-0.1-1.8-0.1-2.7c-0.1-0.9-0.1-1.7-0.2-2.5c0-0.5-0.1-0.9-0.1-1.4c-0.1-0.6-0.1-1.3-0.2-1.9
		c-0.1-1-0.3-2-0.5-2.8c-0.2-0.9-0.4-1.8-0.6-2.5c-0.1-0.2-0.1-0.4-0.2-0.7V20.3z M54.9,1l-3.6,9.7c-0.8-0.2-1.5-0.4-2.3-0.5
		c-1-0.2-2.2-0.4-3.4-0.6c-0.8-0.1-1.5-0.2-2.3-0.3c-0.7-0.1-1.4-0.2-2.1-0.3c-0.8-0.1-1.6-0.2-2.4-0.3c-2.7-0.3-5.7-0.4-9.2-0.4
		c-0.5,0-0.9,0-1.4,0c-0.4,0-0.9,0-1.3,0c-0.5,0-1,0-1.5,0.1c-1.2,0.1-2.4,0.1-3.6,0.2c-0.4,0-0.8,0-1.1,0.1C19,8.8,17.2,8.9,15.5,9
		v40c2.4,0,4.8-0.1,7.2-0.1c2.3-0.1,4.4-0.2,6.5-0.3c0,0,0,0,0,0c1.4-0.1,2.9-0.2,4.3-0.3c1.1-0.1,2.2-0.2,3.2-0.2
		c0.9-0.1,1.9-0.1,2.8-0.2c1.4-0.1,2.8-0.3,4.1-0.4c1.3-0.1,2.4-0.3,3.6-0.5c0.4-0.1,0.7-0.1,1.1-0.2l-2.3,10.6
		c-3.4-0.4-6.9-0.9-10.3-1.2c-1.6-0.2-3.2-0.3-4.7-0.5c-1.7-0.2-3.4-0.3-5.1-0.4c-3.6-0.3-7-0.4-10.3-0.4v45.9
		c2.8,0,5.5-0.1,8.3-0.2c2.5-0.1,5.1-0.3,7.6-0.5c1.7-0.2,3.5-0.4,5.2-0.6c1.9-0.2,3.6-0.5,5.3-0.7c0.7-0.1,1.5-0.2,2.2-0.4
		c2-0.3,4-0.7,6-1.1c1.8-0.4,3.7-0.8,5.5-1.3l-2.1,11.9c-0.2,0-0.3,0-0.5,0c-0.4,0-0.8-0.1-1.4-0.1c-0.3,0-0.5,0-0.8,0
		c-0.6,0-1.2,0-1.9-0.1c-0.7,0-1.4,0-2.1-0.1c-0.7,0-1.5,0-2.2-0.1c-0.8,0-1.6,0-2.3,0c-0.8,0-1.5,0-2.3,0c-0.7,0-1.5,0-2.2,0
		c-0.6,0-1.2,0-1.8,0c-0.5,0-1.1,0-1.5,0c-0.2,0-0.3,0-0.5,0c-0.3,0-0.5,0-0.8,0c-0.6,0-1.1,0-1.5,0c0,0-0.1,0-0.1,0H0v-0.3
		c0.2-0.7,0.4-1.5,0.6-2.5c0.1-0.4,0.2-0.9,0.3-1.3c0.1-0.6,0.2-1.2,0.3-1.9c0.1-0.6,0.1-1.2,0.2-1.8c0.1-0.7,0.1-1.3,0.2-2
		c0.1-0.9,0.1-1.8,0.2-2.7c0.1-1.6,0.2-3.4,0.2-5.3C2,87.3,2.1,85,2.1,82.3c0-1.2,0-2.5,0-3.7V30.9c0-1.5,0-3,0-4.4
		c0-1.2,0-2.3,0-3.4c0-1,0-2-0.1-3.1c0-1.1-0.1-2.2-0.1-3.3c-0.1-1.1-0.1-2.1-0.2-3.1c0-0.6-0.1-1.1-0.1-1.7
		c-0.1-0.8-0.1-1.6-0.2-2.3C1.2,8.4,1,7.3,0.8,6.3c-0.2-1.1-0.4-2.1-0.6-3C0.1,3,0.1,2.8,0,2.5V2.2c6.1,0,12.2,0,18.2-0.1
		c2.9,0,5.8-0.1,8.7-0.1c2.6,0,5.3-0.1,7.9-0.1c3.5-0.1,6.6-0.1,9.3-0.2c1.2,0,2.4-0.1,3.6-0.1c3.1-0.1,5.3-0.3,6.7-0.5
		C54.5,1.1,54.7,1.1,54.9,1z M197.5,19.3l-3.6,8.1c-0.8-0.2-1.5-0.3-2.3-0.5c-1-0.2-2.2-0.4-3.4-0.5c-0.8-0.1-1.5-0.2-2.3-0.3
		c-0.7-0.1-1.4-0.1-2.1-0.2c-0.8-0.1-1.6-0.1-2.4-0.2c-2.7-0.2-5.7-0.3-9.2-0.3c-0.5,0-0.9,0-1.4,0c-0.4,0-0.9,0-1.3,0
		c-0.5,0-1,0-1.5,0c-1.2,0-2.4,0.1-3.6,0.2c-0.4,0-0.8,0-1.1,0.1c-1.8,0.1-3.6,0.2-5.3,0.2V59c2.4,0,4.8-0.1,7.2-0.1
		c2.3-0.1,4.4-0.1,6.5-0.2c0,0,0,0,0,0c1.4-0.1,2.9-0.1,4.3-0.2c1.1-0.1,2.2-0.1,3.2-0.2c0.9-0.1,1.9-0.1,2.8-0.2
		c1.4-0.1,2.8-0.2,4.1-0.3c1.3-0.1,2.4-0.2,3.6-0.4c0.4,0,0.7-0.1,1.1-0.1l-2.3,8.8c-3.4-0.4-6.9-0.7-10.3-1
		c-1.6-0.1-3.2-0.3-4.7-0.4c-1.7-0.1-3.4-0.2-5.1-0.4c-3.6-0.2-7-0.3-10.3-0.3v38c2.8,0,5.5,0,8.3-0.2c2.5-0.1,5.1-0.2,7.6-0.5
		c1.7-0.1,3.5-0.3,5.2-0.5c1.9-0.2,3.6-0.4,5.3-0.6c0.7-0.1,1.5-0.2,2.2-0.3c2-0.3,4-0.6,6-0.9c1.8-0.3,3.7-0.7,5.5-1.1l-2.1,9.8
		c-0.2,0-0.3,0-0.5,0c-0.4,0-0.8,0-1.4-0.1c-0.3,0-0.5,0-0.8,0c-0.6,0-1.2,0-1.9-0.1c-0.7,0-1.4,0-2.1-0.1c-0.7,0-1.5,0-2.2-0.1
		c-0.8,0-1.5,0-2.3,0c-0.8,0-1.5,0-2.3,0c-0.7,0-1.5,0-2.2,0c-0.6,0-1.2,0-1.8,0c-0.5,0-1,0-1.5,0c-0.2,0-0.3,0-0.5,0
		c-0.3,0-0.5,0-0.8,0c-0.6,0-1.1,0-1.5,0c0,0-0.1,0-0.1,0h-31.6v-0.2c0.2-0.6,0.4-1.3,0.6-2c0.1-0.4,0.2-0.7,0.3-1.1
		c0.1-0.5,0.2-1,0.3-1.5c0.1-0.5,0.1-1,0.2-1.5c0.1-0.6,0.1-1.1,0.2-1.7c0.1-0.7,0.1-1.5,0.2-2.2c0.1-1.3,0.2-2.8,0.2-4.4
		c0.1-1.8,0.1-3.7,0.1-5.9c0-1,0-2.1,0-3.1V44c0-1.2,0-2.5,0-3.7c0-1,0-1.9,0-2.8c0-0.8,0-1.7-0.1-2.5c0-0.9-0.1-1.8-0.1-2.7
		c-0.1-0.9-0.1-1.7-0.2-2.5c0-0.5-0.1-0.9-0.1-1.4c-0.1-0.6-0.1-1.3-0.2-1.9c-0.1-1-0.3-2-0.5-2.8c-0.2-0.9-0.4-1.8-0.6-2.5
		c-0.1-0.2-0.1-0.4-0.2-0.7v-0.2c6.1,0,12.2,0,18.2-0.1c2.9,0,5.8,0,8.7-0.1c2.6,0,5.3-0.1,7.9-0.1c3.5,0,6.6-0.1,9.3-0.2
		c1.2,0,2.4-0.1,3.6-0.1c3.1-0.1,5.3-0.2,6.7-0.4C197.1,19.4,197.3,19.4,197.5,19.3z M423.7,19.3l-3.6,8.1c-0.8-0.2-1.5-0.3-2.3-0.5
		c-1-0.2-2.2-0.4-3.4-0.5c-0.8-0.1-1.5-0.2-2.3-0.3c-0.7-0.1-1.4-0.1-2.1-0.2c-0.8-0.1-1.6-0.1-2.4-0.2c-2.7-0.2-5.7-0.3-9.2-0.3
		c-0.5,0-0.9,0-1.4,0c-0.4,0-0.9,0-1.3,0c-0.5,0-1,0-1.5,0c-1.2,0-2.4,0.1-3.6,0.2c-0.4,0-0.8,0-1.1,0.1c-1.8,0.1-3.6,0.2-5.3,0.2
		V59c2.4,0,4.8-0.1,7.2-0.1c2.3-0.1,4.4-0.1,6.5-0.2c0,0,0,0,0,0c1.4-0.1,2.9-0.1,4.3-0.2c1.1-0.1,2.2-0.1,3.2-0.2
		c0.9-0.1,1.9-0.1,2.8-0.2c1.4-0.1,2.8-0.2,4.1-0.3c1.3-0.1,2.4-0.2,3.6-0.4c0.4,0,0.7-0.1,1.1-0.1l-2.3,8.8
		c-3.4-0.4-6.9-0.7-10.3-1c-1.6-0.1-3.2-0.3-4.7-0.4c-1.7-0.1-3.4-0.2-5.1-0.4c-3.6-0.2-7-0.3-10.3-0.3v38c2.8,0,5.5,0,8.3-0.2
		c2.5-0.1,5.1-0.2,7.6-0.5c1.7-0.1,3.5-0.3,5.2-0.5c1.9-0.2,3.6-0.4,5.3-0.6c0.7-0.1,1.5-0.2,2.2-0.3c2-0.3,4-0.6,6-0.9
		c1.8-0.3,3.7-0.7,5.5-1.1l-2.1,9.8c-0.2,0-0.3,0-0.5,0c-0.4,0-0.8,0-1.4-0.1c-0.3,0-0.5,0-0.8,0c-0.6,0-1.2,0-1.9-0.1
		c-0.7,0-1.4,0-2.1-0.1c-0.7,0-1.5,0-2.2-0.1c-0.8,0-1.5,0-2.3,0c-0.8,0-1.5,0-2.3,0c-0.7,0-1.5,0-2.2,0c-0.6,0-1.2,0-1.8,0
		c-0.5,0-1,0-1.5,0c-0.2,0-0.3,0-0.5,0c-0.3,0-0.5,0-0.8,0c-0.6,0-1.1,0-1.5,0c0,0-0.1,0-0.1,0h-31.6v-0.2c0.2-0.6,0.4-1.3,0.6-2
		c0.1-0.4,0.2-0.7,0.3-1.1c0.1-0.5,0.2-1,0.3-1.5c0.1-0.5,0.1-1,0.2-1.5c0.1-0.6,0.1-1.1,0.2-1.7c0.1-0.7,0.1-1.5,0.2-2.2
		c0.1-1.3,0.2-2.8,0.2-4.4c0.1-1.8,0.1-3.7,0.1-5.9c0-1,0-2.1,0-3.1V44c0-1.2,0-2.5,0-3.7c0-1,0-1.9,0-2.8c0-0.8,0-1.7-0.1-2.5
		c0-0.9-0.1-1.8-0.1-2.7c-0.1-0.9-0.1-1.7-0.2-2.5c0-0.5-0.1-0.9-0.1-1.4c-0.1-0.6-0.1-1.3-0.2-1.9c-0.1-1-0.3-2-0.5-2.8
		c-0.2-0.9-0.4-1.8-0.6-2.5c-0.1-0.2-0.1-0.4-0.2-0.7v-0.2c6.1,0,12.2,0,18.2-0.1c2.9,0,5.8,0,8.7-0.1c2.6,0,5.3-0.1,7.9-0.1
		c3.5,0,6.6-0.1,9.3-0.2c1.2,0,2.4-0.1,3.6-0.1c3.1-0.1,5.3-0.2,6.7-0.4C423.3,19.4,423.5,19.4,423.7,19.3z M857.7,22.8l-0.5,11.3
		h-1.6c-0.2-0.4-0.4-0.8-0.6-1.2c-0.3-0.6-0.8-1.3-1.3-2c-0.6-0.8-1.3-1.6-2.1-2.3c-0.4-0.3-0.8-0.7-1.2-1c-1-0.7-2-1.3-3.1-1.8
		c-0.6-0.3-1.3-0.5-1.9-0.8c-1.1-0.4-2.2-0.6-3.4-0.8c-1.1-0.2-2.3-0.2-3.6-0.2c-2.4,0-4.5,0.3-6.4,0.9c-1.1,0.4-2.2,0.8-3.1,1.4
		c-0.5,0.3-1.1,0.7-1.5,1.1c-1.2,1.1-2.2,2.3-2.8,3.7c0,0,0,0.1-0.1,0.1c-0.4,1-0.7,2.1-0.8,3.1c-0.1,0.6-0.1,1.2-0.1,1.8
		c0,2.7,0.9,5.4,2.6,7.8c0.1,0.2,0.2,0.4,0.4,0.5c1.3,1.7,2.7,3.4,4.3,4.9c1,1,2.1,2,3.1,2.9c2.5,2.2,5.1,4.3,7.7,6.3
		c0.6,0.5,1.3,1,1.9,1.5c3.5,2.6,6.7,5.3,9.7,8.1c3,2.8,5.5,5.7,7.4,8.7c2,3,3,6.4,3,9.8c0,2.6-0.5,5.3-1.6,7.9
		c-1.1,2.6-2.8,5.1-5.1,7.1c-1.6,1.5-3.5,2.7-5.5,3.7c-1.1,0.5-2.2,1-3.3,1.4c-2,0.7-4,1.2-6.1,1.5c-2.1,0.3-4.3,0.5-6.8,0.5
		c-2.8,0-5.4-0.2-7.9-0.6s-4.8-0.9-7-1.6c-2.1-0.6-4-1.3-5.7-2c-1.7-0.7-3.1-1.4-4.1-2l1.7-13.4h1.8c0.5,1.9,1.4,3.7,2.6,5.4
		c1.2,1.7,2.7,3.2,4.5,4.5c1.8,1.3,3.9,2.4,6.1,3.1c1.9,0.6,3.9,1,5.9,1.1c0.5,0,1.1,0,1.6,0c2.5,0,4.7-0.3,6.7-0.9
		c2-0.6,3.7-1.5,5.1-2.6c1.4-1.1,2.5-2.5,3.3-4c0.8-1.5,1.1-3.2,1.1-5c0-1.7-0.3-3.5-0.9-5.1c-0.2-0.7-0.5-1.3-0.8-1.9
		c-1.2-2.2-2.6-4.3-4.4-6.1c-1.6-1.7-3.4-3.4-5.3-4.9c-0.3-0.2-0.6-0.5-0.9-0.7c-2.4-1.8-4.7-3.7-7.1-5.5c-2.4-1.8-4.8-3.7-7.1-5.7
		c-2.3-1.9-4.4-4-6.2-6.2c-1.8-2.2-3.3-4.6-4.4-7.1c-0.8-1.9-1.3-3.8-1.5-5.8c-0.1-0.8-0.1-1.7-0.1-2.5c0-1.7,0.2-3.4,0.7-5.1
		c0.4-1.2,0.9-2.4,1.5-3.5c1.4-2.5,3.4-4.7,5.9-6.6c2.5-1.8,5.3-3.2,8.4-4.2c3.1-1,6.4-1.5,9.7-1.5c1.3,0,2.6,0,3.9,0.2
		c0.9,0.1,1.9,0.2,2.8,0.3c1,0.2,2,0.3,2.9,0.5c0.9,0.2,1.7,0.4,2.6,0.6c1.4,0.4,2.7,0.8,3.8,1.1c0.2,0.1,0.4,0.1,0.5,0.2
		c0.3,0.1,0.6,0.2,0.9,0.3c0.7,0.3,1.3,0.5,1.9,0.7C857.6,22.7,857.7,22.8,857.7,22.8z M580.7,83.5V25.6c-2.7,0-5.5,0.1-8.2,0.2
		c-2.5,0.1-4.9,0.3-7.4,0.5c-1.7,0.2-3.3,0.3-5,0.5c-2.6,0.3-5,0.6-7.1,0.9c-1.8,0.3-3.7,0.6-5.5,0.9c-1.7,0.3-3.3,0.7-4.9,1
		c0,0-0.1,0-0.1,0l2.1-9.8c0.2,0,0.3,0,0.5,0c0.4,0,0.8,0,1.4,0.1c0.3,0,0.5,0,0.8,0c0.6,0,1.2,0,1.9,0.1c0.7,0,1.4,0,2.1,0.1
		c0.7,0,1.5,0,2.2,0.1c0.8,0,1.6,0,2.3,0c0.8,0,1.5,0,2.3,0c0.7,0,1.5,0,2.2,0c0.6,0,1.2,0,1.8,0c0.5,0,1.1,0,1.5,0
		c0.2,0,0.3,0,0.5,0c0.3,0,0.5,0,0.8,0c0.6,0,1.1,0,1.5,0c0,0,0.1,0,0.1,0h41.8c0.4,0,1.2,0,2.1,0c0.1,0,0.2,0,0.3,0
		c0.5,0,1,0,1.5,0c0.5,0,1.1,0,1.7,0c0.2,0,0.4,0,0.6,0c0.7,0,1.5,0,2.2,0c0.8,0,1.5,0,2.3,0c0.8,0,1.6,0,2.3,0c0.7,0,1.5,0,2.2-0.1
		c0.7,0,1.4,0,2.1-0.1c0.6,0,1.2,0,1.9-0.1c0.3,0,0.5,0,0.8,0c0.5,0,1,0,1.4-0.1c0.2,0,0.3,0,0.5,0l2.1,9.8c-1.6-0.4-3.3-0.7-5-1
		c-1.8-0.3-3.7-0.7-5.6-1c-2.3-0.3-4.9-0.7-7.8-1c-1.4-0.1-2.8-0.3-4.2-0.4c-2.5-0.2-4.9-0.4-7.4-0.5c-2.7-0.1-5.5-0.2-8.2-0.2v57.8
		c0,1.2,0,2.5,0,3.7c0,1,0,1.9,0.1,2.8c0,0.8,0.1,1.7,0.1,2.5c0,0.9,0.1,1.8,0.1,2.7c0,0.7,0.1,1.4,0.1,2.1c0,0.6,0.1,1.2,0.2,1.8
		c0.2,1.9,0.4,3.4,0.7,4.7c0.2,0.9,0.4,1.8,0.6,2.5c0.1,0.2,0.1,0.4,0.2,0.7v0.2h-17.5v-0.2c0.3-0.8,0.6-1.9,0.8-3.1
		s0.5-2.8,0.7-4.7c0.1-0.7,0.1-1.5,0.2-2.2c0.1-1.3,0.2-2.8,0.2-4.4c0.1-1.8,0.1-3.7,0.1-5.9C580.7,85.5,580.7,84.5,580.7,83.5z
		 M735.4,107.1h-20.1v-0.2c0-0.1,0.1-0.1,0.1-0.2c0.1-0.2,0.1-0.4,0.1-0.7c0-0.2,0-0.4,0.1-0.5c0-0.2,0-0.3,0-0.5c0,0,0,0,0-0.1
		c0-0.7-0.1-1.3-0.2-2c-0.1-0.6-0.2-1.3-0.4-2c0,0,0-0.1,0-0.1c-0.4-1.5-1.2-3.4-2.4-5.7l-8.9-16.5c-0.7,0-1.5,0-2.2-0.1
		c-2.4,0-5.3-0.1-8.7-0.1h-14.7H667c-3.5,0-6.7,0-9.6,0.1c0,0-0.1,0-0.1,0l-8.4,16c-0.4,0.8-0.8,1.6-1.1,2.3
		c-0.4,0.9-0.8,1.7-1.2,2.6c-0.8,1.7-1.2,3.5-1.2,5.4c0,0.2,0,0.4,0,0.5c0,0.2,0,0.3,0.1,0.5c0,0.1,0,0.2,0.1,0.3
		c0,0.1,0,0.2,0.1,0.2c0.1,0.2,0.1,0.4,0.2,0.5c0,0,0,0,0,0v0.2h-14.9v-0.2c0.7-0.6,1.5-1.5,2.4-2.8c0.3-0.4,0.6-0.8,0.9-1.2
		c0.5-0.8,1-1.6,1.5-2.4c0.9-1.5,1.8-3.1,2.8-4.9l42-76.9h5.9l39.8,74c0.9,1.7,1.9,3.4,2.9,5.1c1,1.6,1.9,3.1,2.8,4.4
		c0.3,0.5,0.6,0.9,0.9,1.4c0.3,0.4,0.6,0.9,0.9,1.2c0.2,0.2,0.3,0.4,0.5,0.7c0.1,0.2,0.3,0.4,0.4,0.5c0.5,0.6,0.8,1,1,1.2V107.1z
		 M89,44v57.7c2.8,0,5.5,0,8.3-0.2c2.5-0.1,5.1-0.2,7.6-0.5c1.7-0.1,3.5-0.3,5.2-0.5c1.9-0.2,3.6-0.4,5.3-0.6
		c0.7-0.1,1.5-0.2,2.2-0.3c2-0.3,4-0.6,6-0.9c1.8-0.3,3.7-0.7,5.5-1.1l-2.1,9.8c-0.2,0-0.3,0-0.5,0c-0.4,0-0.8,0-1.4-0.1
		c-0.3,0-0.5,0-0.8,0c-0.6,0-1.2,0-1.9-0.1c-0.7,0-1.4,0-2.1-0.1c-0.7,0-1.5,0-2.2-0.1c-0.8,0-1.5,0-2.3,0c-0.8,0-1.5,0-2.3,0
		c-0.7,0-1.5,0-2.2,0c-0.6,0-1.2,0-1.8,0c-0.5,0-1,0-1.5,0c-0.2,0-0.3,0-0.5,0c-0.3,0-0.5,0-0.8,0c-0.6,0-1.1,0-1.5,0
		c0,0-0.1,0-0.1,0H73.5v-0.2c0.2-0.6,0.4-1.3,0.6-2c0.1-0.4,0.2-0.7,0.3-1.1c0.1-0.5,0.2-1,0.3-1.5c0.1-0.5,0.1-1,0.2-1.5
		c0.1-0.6,0.1-1.1,0.2-1.7c0.1-0.7,0.1-1.5,0.2-2.2c0.1-1.3,0.2-2.8,0.2-4.4c0.1-1.8,0.1-3.7,0.1-5.9c0-1,0-2.1,0-3.1V44
		c0-1.2,0-2.5,0-3.7c0-1,0-1.9,0-2.8c0-0.8,0-1.7-0.1-2.5c0-0.9-0.1-1.8-0.1-2.7c-0.1-0.9-0.1-1.7-0.2-2.5c0-0.5-0.1-0.9-0.1-1.4
		c-0.1-0.6-0.1-1.3-0.2-1.9c-0.1-1-0.3-2-0.5-2.8c-0.2-0.9-0.4-1.8-0.6-2.5c-0.1-0.2-0.1-0.4-0.2-0.7v-0.2h17.6v0.2
		c-0.2,0.6-0.4,1.3-0.6,2c-0.1,0.4-0.2,0.7-0.3,1.1c-0.1,0.5-0.2,1-0.3,1.5c-0.1,0.5-0.1,1-0.2,1.5c-0.1,0.6-0.1,1.1-0.2,1.7
		c-0.1,0.8-0.1,1.5-0.2,2.3c0,0.7-0.1,1.4-0.1,2.1c0,0.8-0.1,1.5-0.1,2.3c0,1-0.1,2-0.1,3.1C89,39.9,89,41.9,89,44z M759.9,44v57.7
		c2.8,0,5.5,0,8.3-0.2c2.5-0.1,5.1-0.2,7.6-0.5c1.7-0.1,3.5-0.3,5.2-0.5c1.9-0.2,3.6-0.4,5.3-0.6c0.7-0.1,1.5-0.2,2.2-0.3
		c2-0.3,4-0.6,6-0.9c1.8-0.3,3.7-0.7,5.5-1.1l-2.1,9.8c-0.2,0-0.3,0-0.5,0c-0.4,0-0.8,0-1.4-0.1c-0.3,0-0.5,0-0.8,0
		c-0.6,0-1.2,0-1.9-0.1c-0.7,0-1.4,0-2.1-0.1c-0.7,0-1.5,0-2.2-0.1c-0.8,0-1.5,0-2.3,0c-0.8,0-1.5,0-2.3,0c-0.7,0-1.5,0-2.2,0
		c-0.6,0-1.2,0-1.8,0c-0.5,0-1,0-1.5,0c-0.2,0-0.3,0-0.5,0c-0.3,0-0.5,0-0.8,0c-0.6,0-1.1,0-1.5,0c0,0-0.1,0-0.1,0h-31.6v-0.2
		c0.2-0.6,0.4-1.3,0.6-2c0.1-0.4,0.2-0.7,0.3-1.1c0.1-0.5,0.2-1,0.3-1.5c0.1-0.5,0.1-1,0.2-1.5c0.1-0.6,0.1-1.1,0.2-1.7
		c0.1-0.7,0.1-1.5,0.2-2.2c0.1-1.3,0.2-2.8,0.2-4.4c0.1-1.8,0.1-3.7,0.1-5.9c0-1,0-2.1,0-3.1V44c0-1.2,0-2.5,0-3.7c0-1,0-1.9,0-2.8
		c0-0.8,0-1.7-0.1-2.5c0-0.9-0.1-1.8-0.1-2.7c-0.1-0.9-0.1-1.7-0.2-2.5c0-0.5-0.1-0.9-0.1-1.4c-0.1-0.6-0.1-1.3-0.2-1.9
		c-0.1-1-0.3-2-0.5-2.8c-0.2-0.9-0.4-1.8-0.6-2.5c-0.1-0.2-0.1-0.4-0.2-0.7v-0.2H762v0.2c-0.2,0.6-0.4,1.3-0.6,2
		c-0.1,0.4-0.2,0.7-0.3,1.1c-0.1,0.5-0.2,1-0.3,1.5c-0.1,0.5-0.1,1-0.2,1.5c-0.1,0.6-0.1,1.1-0.2,1.7c-0.1,0.8-0.1,1.5-0.2,2.3
		c0,0.7-0.1,1.4-0.1,2.1c0,0.8-0.1,1.5-0.1,2.3c0,1-0.1,2-0.1,3.1C759.9,39.9,759.9,41.9,759.9,44z M660,73.3h7.9c2.9,0,5.8,0,8.7,0
		c2.9,0,5.8,0,8.8-0.1c2.1,0,4.2,0,6.2,0c0.7,0,1.3,0,2,0c1.3,0,2.5,0,3.8,0c1.1,0,2.3,0,3.4-0.1l-20.6-38.4L660,73.3z"/>
</g>
</svg>
